<svg width="600" height="600" viewBox="0 0 600 600" fill="none" xmlns="http://www.w3.org/2000/svg">
  <rect width="600" height="600" rx="28" fill="white"/>
  <rect x="58" y="58" width="484" height="484" rx="12" fill="#0B0B0B"/>
  <rect x="82" y="82" width="132" height="132" fill="white"/>
  <rect x="106" y="106" width="84" height="84" fill="#0B0B0B"/>
  <rect x="386" y="82" width="132" height="132" fill="white"/>
  <rect x="410" y="106" width="84" height="84" fill="#0B0B0B"/>
  <rect x="82" y="386" width="132" height="132" fill="white"/>
  <rect x="106" y="410" width="84" height="84" fill="#0B0B0B"/>
  <rect x="264" y="90" width="30" height="30" fill="white"/>
  <rect x="318" y="90" width="30" height="30" fill="white"/>
  <rect x="264" y="144" width="30" height="30" fill="white"/>
  <rect x="348" y="144" width="30" height="30" fill="white"/>
  <rect x="294" y="174" width="30" height="30" fill="white"/>
  <rect x="264" y="264" width="30" height="30" fill="white"/>
  <rect x="318" y="264" width="30" height="30" fill="white"/>
  <rect x="372" y="264" width="30" height="30" fill="white"/>
  <rect x="426" y="264" width="30" height="30" fill="white"/>
  <rect x="264" y="318" width="30" height="30" fill="white"/>
  <rect x="318" y="318" width="30" height="30" fill="white"/>
  <rect x="402" y="318" width="30" height="30" fill="white"/>
  <rect x="456" y="318" width="30" height="30" fill="white"/>
  <rect x="264" y="372" width="30" height="30" fill="white"/>
  <rect x="348" y="372" width="30" height="30" fill="white"/>
  <rect x="402" y="372" width="30" height="30" fill="white"/>
  <rect x="294" y="426" width="30" height="30" fill="white"/>
  <rect x="348" y="426" width="30" height="30" fill="white"/>
  <rect x="402" y="426" width="30" height="30" fill="white"/>
  <rect x="456" y="426" width="30" height="30" fill="white"/>
  <rect x="264" y="480" width="30" height="30" fill="white"/>
  <rect x="318" y="480" width="30" height="30" fill="white"/>
  <rect x="456" y="480" width="30" height="30" fill="white"/>
  <text x="300" y="578" text-anchor="middle" fill="#0B0B0B" font-family="Arial, sans-serif" font-size="28">WhatsApp QR Placeholder</text>
</svg>
